# xmcd
#
# Track frame offsets:
#	150
#	19378
#	35919
#	52273
#	70727
#	88410
#	106936
#	113538
#	132647
#	156457
#	182602
#	200473
#
# Disc length: 2957 seconds
#
# Revision: 0
# Processed by: cddbd v1.5.2PL0 Copyright (c) Steve Scherf et al.
# Submitted via: EZCDAudioConverter 1.3.4.1
#
DISCID=b40b8b0c
DTITLE=My Graveyard Jaw - Dark Passenger
DYEAR=1900
DGENRE=
TTITLE0=Heading Alone
TTITLE1=Pot of Gold
TTITLE2=Sick of Trying
TTITLE3=Hold Tight
TTITLE4=Up Above
TTITLE5=Dancing With Ourselves
TTITLE6=Instrumental
TTITLE7=Feathers Fall
TTITLE8=Harvest The Moon
TTITLE9=Home
TTITLE10=Push and Shove
TTITLE11=Carmel
EXTD=
EXTT0=
EXTT1=
EXTT2=
EXTT3=
EXTT4=
EXTT5=
EXTT6=
EXTT7=
EXTT8=
EXTT9=
EXTT10=
EXTT11=
PLAYORDER=
